<?xml version="1.0"?>
<svg xmlns="http://www.w3.org/2000/svg" xmlns:xlink="http://www.w3.org/1999/xlink" version="1.1" id="Capa_1" x="0px" y="0px" viewBox="0 0 310.641 310.641" style="enable-background:new 0 0 310.641 310.641;" xml:space="preserve" width="512px" height="512px" class=""><g><g>
	<g>
		<path d="M308.961,199.688c-0.013-0.013-0.025-0.025-0.038-0.038l-23.64-23.64c-1.518-1.516-3.749-2.07-5.8-1.44l-45.52,13.88    l-57.4-60.92c0,0,118.36-65.6,118.84-66.12c2.275-2.255,2.292-5.927,0.038-8.202c-0.013-0.013-0.025-0.025-0.038-0.038l-30.6-30.6    c-1.485-1.428-3.617-1.961-5.6-1.4l-142.36,43l-49.36-52.36l-0.28-0.48l-0.32-0.36C59.675,3.833,49.906-0.115,39.763,0.01    C29.638,0.046,19.904,3.92,12.523,10.85l-1.68,1.68C3.912,19.911,0.039,29.646,0.003,39.77    c-0.125,10.143,3.823,19.912,10.96,27.12l0.68,0.76l52.4,49.4l-42.96,141.96c-0.689,2.079-0.147,4.369,1.4,5.92    c0,0,31.4,31.28,32,31.56c2.771,1.606,6.32,0.662,7.927-2.109c0.025-0.043,0.05-0.087,0.073-0.131l64.72-117.52l61.12,57.44    l-13.68,45.16c-0.679,2.08-0.139,4.365,1.4,5.92c0,0,24.44,24.32,24.92,24.6c2.771,1.606,6.32,0.662,7.927-2.109    c0.025-0.043,0.049-0.087,0.073-0.131l34.76-64c0,0,64.68-35.2,65.2-35.72C311.198,205.636,311.215,201.963,308.961,199.688z     M236.803,234.21c-1.149,0.562-2.078,1.491-2.64,2.64l-31.68,58.48l-15.72-15.72l13.76-45.48c0.676-2.245-0.066-4.675-1.88-6.16    l-68.72-64.64c-2.33-2.198-6.001-2.091-8.199,0.239c0,0-0.001,0.001-0.001,0.001c-0.4,0.44-65.84,118.44-65.84,118.44    l-22.68-22.68l43-142.36c0.694-2.257-0.05-4.709-1.88-6.2l-54.76-51.44l-0.36-0.68c-4.953-5.01-7.69-11.796-7.6-18.84    c0.004-7.168,2.719-14.07,7.6-19.32l1.16-1.16c5.232-4.925,12.135-7.683,19.32-7.72c7.047-0.047,13.82,2.733,18.8,7.72l0.28,0.24    l0.28,0.28l52,55c1.507,1.618,3.803,2.239,5.92,1.6l142.24-43.16l22.68,22.68l-117.48,65.04c-2.812,1.534-3.848,5.057-2.313,7.869    c0.024,0.044,0.048,0.087,0.073,0.131c0.24,0.44,65.84,70.16,65.84,70.16c1.507,1.618,3.803,2.239,5.92,1.6l45.56-13.8l15.72,15.6    L236.803,234.21z" data-original="#000000" class="active-path" data-old_color="#02FF00" fill="#386825"/>
	</g>
</g></g> </svg>
