<?xml version="1.0"?>
<svg xmlns="http://www.w3.org/2000/svg" xmlns:xlink="http://www.w3.org/1999/xlink" version="1.1" id="Capa_1" x="0px" y="0px" viewBox="0 0 512 512" style="enable-background:new 0 0 512 512;" xml:space="preserve" width="512px" height="512px" class=""><g><g>
	<g>
		<path d="M497,241c8.284,0,15-6.716,15-15v-90c0-8.284-6.716-15-15-15h-30c-8.271,0-15-6.729-15-15c0-8.284-6.716-15-15-15H75    c-8.284,0-15,6.716-15,15c0,8.271-6.729,15-15,15H15c-8.284,0-15,6.716-15,15v90c0,8.284,6.716,15,15,15c8.271,0,15,6.729,15,15    s-6.729,15-15,15c-8.284,0-15,6.716-15,15v90c0,8.284,6.716,15,15,15h30c8.271,0,15,6.729,15,15c0,8.284,6.716,15,15,15h362    c8.284,0,15-6.716,15-15c0-8.271,6.729-15,15-15h30c8.284,0,15-6.716,15-15v-90c0-8.284-6.716-15-15-15c-8.271,0-15-6.729-15-15    S488.729,241,497,241z M482,213.57c-17.461,6.191-30,22.874-30,42.43c0,19.556,12.539,36.239,30,42.43V361h-15    c-19.557,0-36.239,12.539-42.43,30H87.43c-6.19-17.461-22.873-30-42.43-30H30v-62.57c17.461-6.191,30-22.874,30-42.43    c0-19.556-12.539-36.239-30-42.43V151h15c19.557,0,36.239-12.539,42.43-30h337.14c6.19,17.461,22.873,30,42.43,30h15V213.57z" data-original="#000000" class="active-path" data-old_color="#592871" fill="#5A2872"/>
	</g>
</g><g>
	<g>
		<path d="M196,151c-24.813,0-45,20.187-45,45s20.187,45,45,45s45-20.187,45-45S220.813,151,196,151z M196,211    c-8.271,0-15-6.729-15-15s6.729-15,15-15s15,6.729,15,15S204.271,211,196,211z" data-original="#000000" class="active-path" data-old_color="#592871" fill="#5A2872"/>
	</g>
</g><g>
	<g>
		<path d="M316,271c-24.813,0-45,20.187-45,45s20.187,45,45,45s45-20.187,45-45S340.813,271,316,271z M316,331    c-8.271,0-15-6.729-15-15s6.729-15,15-15s15,6.729,15,15S324.271,331,316,331z" data-original="#000000" class="active-path" data-old_color="#592871" fill="#5A2872"/>
	</g>
</g><g>
	<g>
		<path d="M356.606,155.393c-5.857-5.858-15.355-5.858-21.212,0.001l-165,165c-5.858,5.858-5.858,15.355,0,21.213    C173.322,344.536,177.161,346,181,346s7.678-1.464,10.606-4.394l165-165C362.464,170.748,362.464,161.251,356.606,155.393z" data-original="#000000" class="active-path" data-old_color="#592871" fill="#5A2872"/>
	</g>
</g></g> </svg>
